<svg width="48" height="23" viewBox="0 0 48 23" fill="none" xmlns="http://www.w3.org/2000/svg">
<path fill-rule="evenodd" clip-rule="evenodd" d="M1.20554 22.7704H1.05506C1.05506 22.7322 1.01737 22.6749 1.01737 22.6556C1.01737 22.6366 1.01737 22.5985 0.904295 22.5985H0.678153V22.7704H0.565082V22.369H0.904295C1.05506 22.369 1.16785 22.3883 1.16785 22.4645C1.16785 22.5219 1.13016 22.5411 1.09275 22.56C1.13044 22.5792 1.16785 22.5984 1.16785 22.6366V22.713C1.16785 22.7322 1.16785 22.7322 1.20554 22.7322V22.7704ZM1.05506 22.4837C1.05506 22.4264 0.979676 22.4264 0.941985 22.4264H0.678153V22.5411H0.904295C0.979675 22.5411 1.05506 22.5219 1.05506 22.4837ZM1.69552 22.5601C1.69552 22.3309 1.31889 22.1395 0.828914 22.1395C0.376903 22.1395 0 22.3309 0 22.5601C0 22.8086 0.376903 23 0.828914 23C1.31862 22.9999 1.69552 22.8086 1.69552 22.5601ZM1.58245 22.5601C1.58245 22.7705 1.24351 22.9234 0.828914 22.9234C0.41432 22.9234 0.113071 22.7704 0.113071 22.5601C0.113071 22.369 0.414594 22.1969 0.828914 22.1969C1.24323 22.1969 1.58245 22.369 1.58245 22.5601ZM48 14.8362C48 15.4099 47.2842 15.6772 46.003 15.6772H43.5545V15.1036H46.003C46.2291 15.1036 46.4176 15.0846 46.4932 15.0465C46.5683 15.0081 46.6437 14.9507 46.6437 14.8744C46.6437 14.7977 46.5686 14.7214 46.4932 14.6832C46.4176 14.6449 46.2671 14.6259 46.0409 14.6259C44.8733 14.6066 43.4037 14.6449 43.4037 13.8037C43.4037 13.4212 43.8934 13.0006 45.212 13.0006H47.7362V13.5742H45.4002C45.1746 13.5742 45.0236 13.5742 44.9105 13.6123C44.7974 13.6697 44.7223 13.7271 44.7223 13.8227C44.7223 13.9184 44.8354 13.9757 44.9859 14.0141C45.1369 14.0331 45.2877 14.0522 45.4761 14.0522H46.154C46.8698 14.0522 47.3221 14.1286 47.6236 14.2626C47.8492 14.3964 48 14.5686 48 14.8362ZM42.6876 14.2626C42.3861 14.1286 41.9338 14.0522 41.2179 14.0522H40.54C40.3519 14.0522 40.2008 14.033 40.0503 14.0141C39.8993 13.9757 39.7868 13.9184 39.7868 13.8227C39.7868 13.7271 39.8242 13.6697 39.975 13.6123C40.088 13.5742 40.2385 13.5742 40.4647 13.5742H42.8006V13.0006H40.2765C38.9199 13.0006 38.4676 13.4212 38.4676 13.8037C38.4676 14.6447 39.9373 14.6066 41.1054 14.6259C41.331 14.6259 41.482 14.6449 41.5571 14.6832C41.6322 14.7214 41.7082 14.7977 41.7082 14.8744C41.7082 14.9507 41.6325 15.0081 41.5571 15.0465C41.4441 15.0846 41.2936 15.1036 41.0674 15.1036H38.6184V15.6772H41.0674C42.3481 15.6772 43.0642 15.4097 43.0642 14.8362C43.0642 14.5686 42.9137 14.3964 42.6876 14.2626ZM37.8649 15.123H34.889V14.5876H37.7897V14.0525H34.889V13.5552H37.8649V13.0009H33.6454V15.6774H37.8649V15.123ZM32.2889 13.1348C31.8743 13.02 31.3846 13.0007 30.7441 13.0007H27.8433V15.6772H29.124V14.7022H30.4806C30.9323 14.7022 31.1964 14.7215 31.3848 14.817C31.611 14.9507 31.611 15.1802 31.611 15.3524V15.6772H32.854V15.161C32.854 14.9125 32.8165 14.7977 32.6658 14.664C32.5527 14.5873 32.3271 14.4918 32.0256 14.4345C32.3643 14.3774 32.9299 14.1479 32.9299 13.7271C32.9296 13.4214 32.7035 13.2492 32.2889 13.1348ZM25.1304 13.0007H21.0989L19.4788 13.8802L17.934 13.0007H12.8478V15.6772H17.8589L19.4791 14.7977L21.0238 15.6772H23.4729V14.7789H25.0553C26.1478 14.7789 27.2408 14.6259 27.2408 13.8802C27.2405 13.1537 26.1101 13.0007 25.1304 13.0007ZM31.2715 14.1098C31.0833 14.1479 30.8949 14.1479 30.6687 14.1479L29.124 14.1671V13.5551H30.6687C30.8949 13.5551 31.121 13.5551 31.2715 13.6125C31.4225 13.6509 31.5351 13.7272 31.5351 13.842C31.5351 13.9567 31.4225 14.0524 31.2715 14.1098ZM25.1304 14.2435H23.4726V13.5551H25.1304C25.5827 13.5551 25.884 13.6509 25.884 13.8802C25.884 14.1098 25.5824 14.2435 25.1304 14.2435ZM20.27 14.339L22.2291 13.2876V15.448L20.27 14.339ZM17.2182 15.123H14.091V14.5876H16.879V14.0525H14.091V13.5552H17.2559L18.6499 14.3391L17.2182 15.123ZM44.4959 11.0697H42.6876L40.3139 9.06224V11.0697H37.7523L37.2621 10.477H34.6249L34.1351 11.0697H32.6655C32.0627 11.0697 31.2715 10.9932 30.8198 10.7637C30.4052 10.5344 30.179 10.2285 30.179 9.75049C30.179 9.34899 30.2921 8.98574 30.8569 8.69899C31.2335 8.48861 31.912 8.39312 32.7783 8.39312H33.9838V8.96675H32.7783C32.3266 8.96675 32.0625 9.005 31.7989 9.11976C31.5728 9.23451 31.4597 9.44475 31.4597 9.7315C31.4597 10.0182 31.5728 10.2286 31.7989 10.3625C31.9871 10.458 32.3266 10.4962 32.6652 10.4962H33.2306L35.0389 8.39326H36.9229L39.0327 10.9169V8.39312H40.9921L43.215 10.2476V8.39312H44.4956L44.4959 11.0697ZM29.5386 8.39312H28.2579V11.0697H29.5386V8.39312ZM26.8634 8.50787C26.4488 8.39312 25.997 8.39312 25.3566 8.39312H22.4552V11.0697H23.6985V10.0946H25.0548C25.5071 10.0946 25.8086 10.1137 25.9968 10.2094C26.2229 10.3432 26.1849 10.5728 26.1849 10.7256V11.0697H27.4656V10.5344C27.4656 10.305 27.4282 10.1902 27.24 10.0564C27.1269 9.97986 26.9008 9.88423 26.6372 9.82699C26.9759 9.75049 27.5415 9.54024 27.5415 9.11962C27.5418 8.81374 27.2777 8.64161 26.8634 8.50787ZM21.5509 10.5154H18.6122V9.97999H21.5133V9.42563H18.6122V8.94762H21.5509V8.39326H17.3313V11.0699H21.5509V10.5154ZM16.3893 8.39312H14.3171L12.7724 10.2094L11.1146 8.39312H9.08009V10.9167L6.93256 8.39312H5.04887L2.78826 11.0697H4.14457L4.63427 10.477H7.2715L7.7612 11.0697H10.3233V8.96675L12.1693 11.0697H13.2618L15.1081 8.96675V11.0697H16.389L16.3893 8.39312ZM36.8103 9.90349L35.9435 8.85199L35.0771 9.90349H36.8103ZM25.884 9.483C25.6958 9.54038 25.5073 9.54038 25.2435 9.54038H23.6985V8.94776H25.2432C25.4694 8.94776 25.7327 8.94776 25.8837 8.98601C26.0342 9.04339 26.1098 9.11989 26.1098 9.23451C26.1098 9.34912 26.0345 9.44461 25.884 9.483ZM5.08628 9.90349L5.95289 8.85199L6.81949 9.90349H5.08628ZM47.6987 0H25.2245H2.7503V9.63587L4.29506 7.85788H7.57275L8.02504 8.29763V7.85788H11.8681L12.7347 8.81374L13.5636 7.85788H25.8086C26.3734 7.85788 26.8631 7.91525 27.2403 8.06812V7.85788H30.5934V8.06812C31.1582 7.91511 31.874 7.85788 32.7032 7.85788H37.5633L38.0156 8.29763V7.85788H41.5948L42.1225 8.29763V7.85788H45.6261V11.6051H42.0848L41.4069 11.0316V11.6051H36.9985L36.5088 10.9934H35.4158L34.9261 11.6051H32.6281C31.7238 11.6051 31.0454 11.4904 30.5936 11.3758V11.6051H25.1304V10.7447C25.1304 10.63 25.0927 10.6109 24.942 10.6109H24.7538V11.605H14.2041V11.127L13.8274 11.605H11.6045L11.2279 11.1461V11.605H6.97025L6.51824 10.9932H5.4255L4.93579 11.605H2.7503V22.9042H47.6987V16.0405C47.209 16.1552 46.5306 16.2126 45.8525 16.2126H42.5745V15.9831C42.1979 16.1362 41.5194 16.2126 40.8793 16.2126H30.5557V15.3524C30.5557 15.2376 30.5182 15.2376 30.3295 15.2376H30.1413V16.2126H26.7503V15.1994C26.1855 15.3331 25.5448 15.3331 24.9797 15.3331H24.6028V16.2126H20.4585L19.4791 15.639L18.3866 16.2126H11.7173V12.4655H18.4991L19.4788 13.0389L20.5339 12.4655H25.0927C25.6199 12.4655 26.4867 12.5036 26.8634 12.6947V12.4655H30.9323C31.3469 12.4655 32.1384 12.5036 32.6655 12.6947V12.4655H38.8068V12.6949C39.146 12.5419 39.7868 12.4656 40.3516 12.4656H43.78V12.6949C44.1572 12.5611 44.6843 12.4656 45.3628 12.4656H47.6987V0Z" fill="black"/>
</svg>
