<svg width="38" height="21" viewBox="0 0 38 21" fill="none" xmlns="http://www.w3.org/2000/svg">
<path d="M26.1514 20.7238C32.6865 20.7506 38.0455 16.2665 37.9997 10.8107C38.0449 5.20574 32.6865 0.722118 26.1514 0.723877H13.0565C6.44304 0.722558 1.08413 5.20574 1 10.8107C1.08413 16.2665 6.44304 20.7502 13.056 20.7238H26.1514V20.7238Z" fill="#2D4F9E"/>
<path d="M0.854248 10.1949C0.921209 4.88493 6.05073 0.641246 12.3823 0.659114C18.7069 0.641246 23.8369 4.88493 23.9098 10.1953C23.8369 15.3543 18.7069 19.598 12.3823 19.5547C6.05073 19.598 0.921209 15.3539 0.854248 10.1949V10.1949Z" fill="white"/>
<path d="M9.81997 4.54407C7.16692 5.53441 5.17646 7.65178 5.12354 10.1949C5.17646 12.6423 7.07188 14.7981 9.81997 15.6692V4.54407ZM14.9435 15.6697C17.6852 14.7986 19.58 12.6423 19.64 10.1953C19.58 7.59728 17.6846 5.44105 14.9435 4.54451V15.6697Z" fill="#2D4F9E"/>
</svg>
